<svg xmlns="http://www.w3.org/2000/svg" viewBox="0 0 14.23 14.23"><defs><style>.cls-1{fill:#fff;}</style></defs><title>Asset 3</title><g id="Layer_2" data-name="Layer 2"><g id="Layer_1-2" data-name="Layer 1"><path class="cls-1" d="M14.2,11c0-.12-.3-.3-.77-.53l-.55-.31-.64-.35-.54-.31-.25-.18a2.69,2.69,0,0,0-.36-.22.82.82,0,0,0-.29-.07.85.85,0,0,0-.5.29,4.2,4.2,0,0,0-.56.63,6.48,6.48,0,0,1-.54.62.71.71,0,0,1-.46.29.8.8,0,0,1-.23-.05l-.2-.08-.25-.15-.19-.11A10.59,10.59,0,0,1,5.5,8.73,10.43,10.43,0,0,1,3.74,6.35l-.12-.19a1.9,1.9,0,0,1-.14-.24l-.09-.21a.74.74,0,0,1-.05-.22c0-.13.1-.28.29-.47a4.65,4.65,0,0,1,.63-.53,6.64,6.64,0,0,0,.63-.56.82.82,0,0,0,.28-.5.59.59,0,0,0-.07-.29,2.49,2.49,0,0,0-.21-.36l-.18-.25c-.1-.17-.21-.35-.31-.54L4,1.34,3.74.8C3.5.33,3.32.07,3.2,0A.51.51,0,0,0,3,0a3.14,3.14,0,0,0-.71.1,4.51,4.51,0,0,0-.69.21A2.67,2.67,0,0,0,.52,1.55,3.84,3.84,0,0,0,0,3.42,3.19,3.19,0,0,0,0,4a4,4,0,0,0,.12.58q.09.32.15.48c0,.1.1.29.21.56l.18.49a8.53,8.53,0,0,0,.84,1.77,14.89,14.89,0,0,0,2.17,2.67,14.68,14.68,0,0,0,2.68,2.18,9.28,9.28,0,0,0,1.76.84l.5.18.56.21c.1,0,.26.08.48.14a2.94,2.94,0,0,0,.58.13,4.55,4.55,0,0,0,.53,0,4,4,0,0,0,1.88-.52,2.69,2.69,0,0,0,1.23-1.07,3.18,3.18,0,0,0,.21-.69,3.34,3.34,0,0,0,.11-.71A.61.61,0,0,0,14.2,11Z"/></g></g></svg>