<svg xmlns="http://www.w3.org/2000/svg" viewBox="0 0 13.63 10.49"><defs><style>.cls-1{fill:#fff;}</style></defs><title>Asset 5</title><g id="Layer_2" data-name="Layer 2"><g id="Layer_1-2" data-name="Layer 1"><path class="cls-1" d="M1,.15,5.75,5.52a1.42,1.42,0,0,0,2.13,0L12.53.24a.57.57,0,0,1,.13-.1A1.5,1.5,0,0,0,12,0H1.61A1.59,1.59,0,0,0,1,.12Z"/><path class="cls-1" d="M13.38.75a.51.51,0,0,1-.09.16L8.64,6.19A2.44,2.44,0,0,1,5,6.19L.26.81l0,0A1.64,1.64,0,0,0,0,1.61V8.88a1.61,1.61,0,0,0,1.61,1.61H12a1.61,1.61,0,0,0,1.61-1.61V1.61A1.58,1.58,0,0,0,13.38.75Z"/></g></g></svg>