<svg xmlns="http://www.w3.org/2000/svg" viewBox="0 0 13.37 17.31"><defs><style>.cls-1{fill:#fff;}</style></defs><title>Asset 2</title><g id="Layer_2" data-name="Layer 2"><g id="Layer_1-2" data-name="Layer 1"><path class="cls-1" d="M6.68,4.37a2,2,0,1,0,2,2A2,2,0,0,0,6.68,4.37Z"/><path class="cls-1" d="M6.68,0A6.68,6.68,0,0,0,0,6.68c0,3.15,4.86,8.85,6.29,10.46a.54.54,0,0,0,.79,0c1.43-1.61,6.29-7.31,6.29-10.46A6.68,6.68,0,0,0,6.68,0Zm0,9.67A3.31,3.31,0,1,1,10,6.36,3.31,3.31,0,0,1,6.68,9.67Z"/></g></g></svg>