<?xml version="1.0" standalone="no"?>
<!DOCTYPE svg PUBLIC "-//W3C//DTD SVG 20010904//EN"
 "http://www.w3.org/TR/2001/REC-SVG-20010904/DTD/svg10.dtd">
<svg version="1.0" xmlns="http://www.w3.org/2000/svg"
 width="800.000000pt" height="800.000000pt" viewBox="0 0 800.000000 800.000000"
 preserveAspectRatio="xMidYMid meet">
<metadata>
Created by potrace 1.11, written by Peter Selinger 2001-2013
</metadata>
<g transform="translate(0.000000,800.000000) scale(0.100000,-0.100000)"
fill="#000000" stroke="none">
<path d="M3880 7639 c0 -3 -19 -5 -42 -4 -40 1 -153 -18 -188 -32 -8 -4 -28
-8 -45 -10 -16 -3 -36 -9 -42 -15 -9 -7 -13 -7 -13 1 0 8 -5 9 -19 1 -11 -5
-27 -10 -36 -10 -9 0 -37 -10 -63 -22 -26 -12 -54 -23 -63 -25 -9 -1 -27 -7
-40 -12 -13 -5 -26 -8 -29 -8 -3 0 -16 -6 -30 -13 -14 -8 -28 -13 -32 -12 -5
1 -8 -2 -8 -8 0 -5 -8 -10 -19 -10 -10 0 -24 -6 -30 -14 -7 -8 -21 -12 -31 -9
-11 3 -20 0 -20 -6 0 -9 -33 -29 -60 -36 -16 -4 -77 -40 -85 -51 -5 -7 -19
-14 -29 -16 -11 -2 -30 -13 -44 -24 -43 -38 -58 -49 -73 -52 -8 -2 -21 -10
-30 -18 -9 -8 -19 -11 -23 -7 -4 5 -7 4 -6 -2 5 -21 -1 -35 -13 -35 -7 0 -28
-16 -47 -35 -19 -19 -38 -35 -42 -35 -12 0 -217 -208 -211 -214 3 -3 -2 -8
-11 -12 -9 -3 -16 -13 -16 -21 0 -8 -4 -12 -8 -9 -5 3 -15 -7 -23 -22 -8 -15
-25 -37 -39 -49 -14 -13 -20 -23 -15 -23 6 0 2 -5 -8 -11 -9 -6 -15 -14 -12
-20 4 -5 1 -9 -5 -9 -6 0 -15 -11 -20 -25 -5 -14 -14 -25 -20 -25 -6 0 -9 -4
-5 -9 3 -6 0 -13 -8 -18 -7 -4 -18 -19 -25 -33 -7 -14 -23 -43 -36 -65 -14
-22 -28 -52 -31 -68 -4 -15 -10 -25 -15 -22 -4 2 -15 -17 -24 -43 -10 -26 -25
-63 -34 -82 -9 -19 -17 -39 -18 -45 0 -5 -6 -23 -13 -38 -6 -16 -9 -33 -5 -38
3 -5 0 -9 -5 -9 -6 0 -11 -9 -11 -20 0 -11 -5 -20 -11 -20 -5 0 -8 -4 -4 -9 3
-5 -4 -32 -15 -60 -11 -28 -18 -51 -15 -51 2 0 -2 -20 -9 -44 -8 -28 -10 -49
-4 -60 6 -11 5 -16 -3 -16 -6 0 -9 -6 -6 -14 3 -7 1 -18 -5 -24 -5 -5 -11 -25
-12 -43 -2 -19 -6 -41 -10 -50 -4 -9 -6 -20 -5 -25 1 -5 0 -11 -1 -14 -1 -3
-3 -95 -5 -205 -1 -134 2 -202 9 -207 7 -5 6 -8 -3 -8 -11 0 -11 -3 0 -17 12
-14 12 -16 0 -8 -10 5 -12 4 -7 -3 9 -15 17 -49 20 -87 1 -16 6 -41 11 -55 4
-14 9 -41 11 -60 1 -19 3 -35 4 -35 2 0 9 -34 13 -65 2 -14 10 -36 17 -50 8
-14 13 -29 12 -33 -1 -4 3 -18 10 -30 7 -12 11 -26 9 -31 -3 -11 21 -80 47
-136 9 -19 17 -44 19 -55 2 -10 8 -22 15 -26 6 -4 8 -11 4 -17 -3 -5 3 -20 14
-32 11 -13 20 -29 20 -36 0 -7 7 -20 16 -29 9 -9 14 -18 11 -21 -3 -3 6 -17
19 -31 13 -14 24 -31 24 -38 0 -7 7 -18 15 -25 8 -7 13 -16 10 -20 -3 -5 4
-15 15 -23 11 -7 17 -17 13 -20 -3 -4 -1 -7 5 -7 6 0 14 -10 18 -22 4 -13 18
-35 33 -49 14 -14 37 -44 51 -67 14 -23 30 -42 36 -42 6 0 18 -16 27 -36 10
-19 22 -32 27 -29 6 3 10 2 10 -3 0 -14 119 -132 133 -132 6 0 26 -12 42 -28
55 -50 130 -107 157 -121 15 -8 25 -17 23 -21 -3 -5 6 -10 18 -14 13 -3 36
-17 52 -30 16 -14 32 -23 37 -20 4 3 11 -2 14 -10 3 -9 15 -16 25 -16 10 0 19
-4 19 -10 0 -5 7 -10 15 -10 9 0 18 -6 21 -14 3 -8 12 -12 20 -9 8 3 14 0 14
-6 0 -6 7 -11 15 -11 8 0 15 -4 15 -8 0 -5 6 -9 14 -9 7 0 43 -14 79 -31 36
-18 75 -32 86 -32 11 0 26 -6 33 -13 7 -7 20 -12 28 -12 8 0 18 -3 21 -7 3 -5
15 -10 27 -13 12 -2 27 -7 34 -11 6 -4 21 -8 32 -10 44 -5 72 -13 99 -27 16
-8 42 -14 58 -13 16 1 29 -1 29 -5 0 -8 61 -16 152 -21 61 -4 70 -9 126 -73
17 -21 32 -35 32 -30 0 4 10 1 23 -8 23 -15 107 -28 107 -16 0 4 8 6 18 4 9
-1 22 2 29 7 7 5 18 6 24 2 8 -4 9 -3 5 4 -4 7 -2 12 4 12 6 0 30 20 54 44 43
46 58 52 136 61 96 10 135 18 141 27 4 6 9 6 14 -2 6 -9 9 -9 15 -1 3 7 20 14
35 17 16 3 36 11 44 17 8 7 17 11 20 9 5 -3 67 8 81 14 3 1 15 5 28 9 12 4 22
11 22 16 0 5 7 6 15 3 8 -4 15 -2 15 3 0 5 8 9 18 10 9 1 31 7 47 14 17 7 34
13 38 13 4 1 12 8 17 16 5 8 10 12 10 7 0 -4 18 2 40 13 23 11 45 18 49 15 5
-2 11 2 15 10 3 8 12 15 21 15 8 0 15 5 15 11 0 5 5 7 10 4 6 -3 10 -1 10 5 0
6 11 15 25 20 34 13 144 82 173 109 12 12 26 21 31 21 5 0 20 12 35 26 14 15
26 24 26 20 0 -4 19 11 43 34 23 22 45 40 50 40 15 -1 149 128 207 200 19 23
42 51 51 60 9 9 28 37 43 61 14 24 26 40 26 34 0 -5 12 12 26 39 14 27 30 54
35 60 17 19 99 161 99 170 0 5 10 25 22 45 13 20 23 39 24 44 1 4 2 8 3 10 2
1 4 13 7 26 2 14 9 30 14 36 5 6 11 20 13 31 2 10 10 33 16 49 13 32 14 34 31
105 6 24 15 49 20 56 6 6 7 14 4 17 -3 3 -2 12 2 19 9 14 12 27 19 73 8 49 10
59 18 73 5 6 4 12 -2 12 -7 0 -7 8 -2 23 4 12 8 37 7 55 0 17 2 32 6 32 4 0 5
7 2 15 -4 8 -2 21 3 28 12 16 5 437 -7 437 -3 0 -5 26 -5 58 0 31 -2 62 -6 67
-4 6 -9 31 -12 57 -3 26 -11 56 -17 68 -6 11 -8 20 -4 20 3 0 0 8 -7 17 -12
15 -12 16 1 8 10 -6 9 -2 -3 12 -10 12 -17 27 -16 35 1 7 0 20 -3 28 -3 8 -10
31 -17 50 -7 19 -13 40 -15 47 -1 7 -5 16 -9 19 -4 4 -7 16 -7 26 0 10 -5 18
-12 18 -6 0 -9 3 -5 6 7 8 -19 81 -41 114 -9 14 -15 28 -14 33 1 4 -4 7 -10 7
-10 0 -10 2 0 9 10 6 10 10 -3 21 -8 7 -15 18 -15 25 0 7 -7 16 -16 19 -8 3
-13 10 -10 15 4 5 3 11 -1 13 -5 1 -18 24 -31 51 -13 26 -27 47 -31 47 -4 0
-13 16 -21 35 -7 19 -22 37 -32 41 -10 3 -16 9 -13 13 2 5 -6 20 -19 34 -13
14 -21 28 -18 31 3 3 0 6 -6 6 -7 0 -12 5 -12 10 0 11 -22 38 -80 95 -19 19
-30 35 -25 35 5 0 -7 11 -28 26 -21 14 -35 29 -32 35 4 5 -1 9 -9 9 -9 0 -16
4 -16 8 0 5 -11 15 -25 22 -14 7 -23 15 -20 18 4 5 -20 32 -29 32 -4 0 -21 15
-39 33 -17 18 -40 36 -49 40 -10 3 -18 11 -18 17 0 5 -6 10 -13 10 -7 0 -18 9
-25 20 -7 11 -19 20 -27 20 -8 0 -15 5 -15 10 0 6 -5 10 -10 10 -6 0 -23 11
-38 25 -15 14 -32 25 -38 25 -7 0 -35 16 -63 35 -28 19 -60 36 -70 38 -11 2
-28 10 -38 19 -15 13 -41 26 -58 28 -2 1 -17 7 -32 15 -14 8 -30 12 -35 9 -4
-3 -8 -1 -8 3 0 7 -79 45 -100 49 -28 4 -66 19 -72 27 -3 6 -15 12 -25 13 -10
1 -28 5 -40 8 -61 16 -120 27 -150 29 -7 0 -13 5 -13 10 0 5 -7 7 -15 3 -8 -3
-15 -1 -15 3 0 5 -9 7 -20 4 -11 -3 -20 -1 -20 4 0 8 -26 12 -125 16 -22 1
-43 7 -47 12 -5 6 -8 6 -8 -1 0 -11 -28 -12 -45 -2 -13 8 -325 5 -325 -3z
m312 -211 c43 -2 78 -6 78 -9 0 -3 6 -6 13 -6 69 -3 107 -8 107 -14 0 -3 10
-6 23 -5 12 1 39 -2 60 -6 20 -5 54 -11 75 -14 20 -3 41 -10 46 -15 6 -5 18
-9 29 -9 10 0 15 -4 12 -10 -4 -6 8 -10 29 -10 20 0 36 -3 36 -8 0 -4 14 -8
30 -8 17 -1 39 -9 48 -17 9 -9 29 -19 45 -22 15 -4 30 -11 33 -16 3 -5 12 -9
20 -9 9 0 22 -7 31 -15 8 -8 19 -13 24 -10 5 4 9 2 9 -3 0 -5 31 -26 70 -45
38 -20 79 -46 90 -57 11 -11 25 -18 30 -15 4 3 22 -7 39 -22 47 -44 104 -88
108 -85 5 4 233 -223 233 -231 0 -4 14 -20 30 -35 17 -16 30 -37 30 -46 0 -9
5 -16 11 -16 6 0 17 -7 25 -15 9 -8 13 -15 9 -15 -8 0 37 -65 73 -105 6 -7 12
-18 12 -24 0 -6 5 -11 11 -11 5 0 7 -5 4 -11 -4 -6 2 -20 13 -32 29 -32 54
-87 48 -103 -3 -9 -1 -12 4 -9 6 3 10 -1 10 -9 0 -9 5 -16 10 -16 6 0 10 -9
10 -19 0 -11 5 -23 10 -26 6 -3 10 -15 10 -26 0 -11 4 -17 10 -14 5 3 7 0 5
-8 -3 -7 1 -30 10 -50 8 -20 15 -39 16 -42 0 -2 7 -21 15 -41 8 -20 13 -39 10
-42 -3 -3 -1 -11 6 -19 6 -7 8 -16 5 -19 -3 -4 0 -23 8 -43 7 -20 16 -45 20
-56 12 -31 15 -54 19 -141 2 -45 6 -86 9 -91 11 -17 6 -333 -5 -333 -7 0 -6
-5 1 -13 6 -8 8 -17 4 -21 -4 -4 -8 -28 -9 -54 -2 -66 -12 -119 -29 -156 -8
-17 -16 -46 -17 -64 -1 -19 -6 -36 -10 -38 -4 -3 -8 -15 -8 -28 0 -12 -5 -27
-12 -34 -7 -7 -9 -12 -5 -12 4 0 -2 -18 -13 -40 -11 -22 -18 -40 -16 -40 3 0
-2 -16 -10 -35 -8 -19 -11 -35 -7 -35 5 0 3 -4 -3 -8 -14 -9 -64 -116 -64
-137 0 -9 -4 -14 -9 -11 -6 4 -31 -33 -36 -54 -3 -14 -31 -59 -57 -90 -46 -56
-48 -59 -48 -68 0 -5 -11 -19 -25 -32 -14 -13 -25 -28 -25 -33 0 -9 -14 -25
-145 -160 -47 -49 -85 -85 -85 -80 0 4 -9 -5 -20 -22 -11 -16 -20 -26 -20 -21
0 4 -15 -5 -33 -20 -80 -68 -98 -79 -128 -76 -4 1 -17 -10 -29 -23 -13 -14
-32 -25 -42 -25 -10 0 -18 -5 -18 -11 0 -5 -4 -8 -9 -5 -5 4 -11 2 -13 -3 -1
-5 -9 -11 -17 -13 -8 -2 -23 -10 -33 -18 -10 -8 -22 -15 -26 -15 -16 0 -82
-37 -82 -45 0 -6 -3 -9 -7 -8 -5 0 -15 -1 -23 -5 -8 -3 -42 -15 -75 -27 -33
-12 -64 -25 -70 -30 -9 -8 -33 -12 -110 -22 -11 -2 -23 -7 -26 -11 -3 -5 -12
-10 -20 -11 -8 -1 -32 -8 -54 -14 -99 -28 -205 -40 -205 -23 0 6 -4 10 -8 8
-5 -1 -21 13 -36 30 -15 18 -30 32 -34 31 -4 -1 -17 3 -28 10 -12 6 -24 8 -28
5 -3 -3 -6 -2 -6 4 0 17 -94 6 -135 -16 -22 -12 -52 -36 -67 -53 -24 -28 -32
-31 -79 -29 -28 1 -56 4 -62 8 -5 3 -21 7 -36 9 -39 4 -77 13 -108 25 -16 6
-29 10 -30 10 -2 0 -8 2 -15 4 -7 2 -26 6 -43 9 -16 2 -30 5 -30 6 0 1 -13 4
-29 6 -16 2 -32 7 -35 12 -5 7 -69 36 -81 37 -16 1 -111 42 -144 63 -22 13
-45 25 -52 26 -6 1 -18 7 -25 13 -8 6 -34 21 -58 33 -25 12 -51 29 -59 36 -7
8 -18 12 -23 9 -5 -4 -9 -1 -9 4 0 6 -9 11 -19 11 -11 0 -35 14 -53 30 -18 17
-41 33 -50 36 -10 3 -18 11 -18 19 0 7 -15 20 -34 29 -18 9 -41 27 -50 40 -8
14 -25 27 -36 31 -11 3 -20 12 -20 20 0 7 -14 23 -30 35 -17 12 -30 26 -30 31
0 5 -17 27 -37 48 -65 67 -93 103 -93 116 0 7 -7 15 -15 19 -8 3 -15 10 -15
17 0 6 -11 24 -25 41 -14 16 -25 36 -25 44 0 8 -4 14 -9 14 -5 0 -25 30 -45
68 -20 37 -40 74 -45 82 -15 25 -34 74 -38 95 -2 10 -9 23 -16 27 -6 4 -9 8
-5 8 4 0 1 12 -7 27 -8 15 -12 30 -9 35 3 4 1 8 -4 8 -9 0 -20 38 -25 83 -1 9
-4 17 -7 17 -4 0 -7 7 -8 15 -1 8 -3 22 -4 30 -1 8 -5 15 -10 15 -4 0 -7 3 -6
8 1 4 -2 23 -6 42 -5 19 -10 46 -12 60 -1 14 -5 35 -7 46 -3 12 -6 43 -8 70
-1 27 -4 53 -7 58 -7 13 -14 103 -14 191 0 85 3 113 15 133 5 6 4 12 0 12 -5
0 -9 9 -10 20 -1 11 1 19 5 16 4 -2 8 8 8 22 4 90 8 132 14 132 4 0 6 10 5 23
-1 12 4 41 10 65 7 23 11 42 8 42 -3 0 0 7 7 15 7 8 10 15 7 15 -3 0 1 17 10
38 9 20 18 53 20 72 3 19 12 46 21 60 9 14 17 28 18 33 1 4 2 8 4 10 1 1 3 11
5 22 2 11 9 21 15 23 5 2 8 8 5 12 -6 10 23 76 44 102 8 9 16 24 17 32 2 15
38 73 121 196 48 71 88 120 175 214 32 33 58 64 58 69 0 4 5 7 11 7 14 0 39
26 39 40 0 6 4 9 9 6 5 -3 11 1 15 9 3 8 12 15 20 15 8 0 26 14 39 30 14 17
30 30 35 30 8 0 27 14 72 52 8 7 17 14 20 14 30 8 50 18 50 25 0 9 75 51 99
55 7 1 23 12 35 23 12 12 27 21 32 21 5 0 21 8 34 17 14 10 31 18 37 19 7 1
34 13 61 25 26 13 54 24 62 25 16 1 34 7 90 30 20 9 42 16 50 17 8 2 20 6 25
9 6 4 23 5 38 4 15 -2 27 1 27 5 0 5 18 9 39 9 22 0 42 3 44 8 3 4 31 8 63 10
32 2 61 7 64 11 3 4 24 6 48 5 23 0 42 1 42 5 0 6 65 5 242 -1z"/>
<path d="M4087 6284 c-4 -4 -30 -8 -59 -10 -71 -4 -92 -9 -158 -40 -95 -44
-100 -47 -100 -56 0 -4 -6 -8 -14 -8 -15 0 -126 -106 -126 -120 0 -5 -6 -15
-13 -22 -18 -19 -38 -68 -32 -79 4 -5 2 -9 -3 -9 -22 0 -51 -101 -56 -192 0
-16 -5 -28 -9 -28 -5 0 -5 -6 0 -12 4 -7 8 -24 9 -38 5 -60 13 -107 23 -132 6
-16 7 -28 3 -28 -4 0 1 -5 11 -11 9 -5 17 -19 17 -29 0 -10 5 -22 10 -25 6 -4
8 -10 5 -15 -3 -5 3 -15 15 -22 11 -7 20 -18 20 -25 0 -7 5 -13 11 -13 5 0 8
-4 5 -8 -3 -5 16 -31 41 -58 26 -27 48 -47 50 -44 1 3 11 -3 22 -12 32 -27
141 -78 167 -78 13 0 24 -4 24 -8 0 -5 6 -9 13 -9 6 -1 30 -4 52 -7 61 -10
110 -11 125 -1 7 5 27 9 44 10 17 1 39 5 48 9 10 4 23 6 30 4 7 -3 21 4 32 14
11 10 27 18 36 18 34 0 148 90 200 159 14 18 30 38 36 45 6 6 10 19 8 29 -1 9
1 17 5 17 10 0 42 68 47 100 3 14 7 32 11 40 12 30 9 215 -3 248 -7 18 -13 35
-13 37 1 19 -14 65 -22 65 -5 0 -9 7 -9 15 0 8 -5 15 -11 15 -5 0 -8 4 -4 10
6 10 -30 72 -64 107 -12 12 -21 27 -21 32 0 6 -11 13 -25 17 -14 3 -25 12 -25
19 0 7 -8 15 -17 18 -10 3 -31 13 -48 23 -71 40 -119 63 -141 67 -10 1 -23 5
-29 7 -5 3 -30 5 -55 5 -25 0 -48 3 -51 7 -3 5 -8 5 -12 2z"/>
<path d="M4007 4729 c-10 -6 -24 -8 -31 -6 -7 3 -19 -3 -27 -14 -7 -10 -18
-19 -24 -19 -17 0 -76 -46 -68 -53 3 -4 1 -7 -6 -7 -13 0 -46 -29 -46 -41 0
-4 -10 -19 -22 -33 -13 -14 -23 -28 -23 -31 -1 -6 -9 -33 -21 -65 -14 -37 -13
-138 1 -155 6 -8 9 -19 5 -25 -3 -5 -1 -10 4 -10 6 0 11 -8 11 -19 0 -10 7
-24 15 -31 8 -7 15 -17 15 -22 0 -6 16 -26 35 -45 19 -19 35 -38 35 -42 0 -11
79 -61 95 -61 8 0 16 -4 19 -9 12 -19 166 -35 166 -17 0 4 6 6 14 3 8 -3 17
-3 21 1 4 4 10 7 13 8 12 1 47 17 52 23 3 3 22 14 42 25 20 10 36 22 35 25 -1
4 15 22 35 40 21 18 36 37 33 41 -3 4 2 13 10 20 16 13 36 68 42 114 7 60 8
106 2 106 -3 0 -5 10 -4 23 2 24 -60 147 -81 160 -7 4 -29 23 -49 43 -20 19
-43 33 -51 30 -7 -3 -17 0 -21 7 -23 35 -182 61 -226 36z"/>
<path d="M2605 3342 c-2 -2 -16 -4 -32 -6 -15 -1 -33 -4 -38 -7 -6 -3 -25 -5
-42 -4 -18 1 -33 -3 -33 -7 0 -5 -4 -7 -9 -4 -11 7 -71 -16 -71 -27 0 -4 -4
-5 -10 -2 -5 3 -10 1 -10 -4 0 -6 -3 -10 -7 -9 -23 6 -133 -79 -133 -103 0 -5
-4 -9 -9 -9 -8 0 -24 -47 -26 -75 0 -5 -4 -15 -8 -22 -4 -6 -3 -14 3 -18 6 -4
8 -11 4 -16 -3 -5 2 -23 10 -41 9 -17 16 -37 16 -45 0 -8 4 -12 9 -8 6 3 24
-15 41 -40 17 -24 35 -44 39 -42 5 1 20 -11 35 -26 14 -15 26 -25 26 -21 0 4
8 0 18 -9 9 -8 20 -16 24 -17 33 -7 48 -13 48 -20 0 -4 12 -11 28 -16 15 -4
29 -8 32 -9 100 -30 102 -31 144 -39 16 -3 33 -11 38 -18 6 -10 8 -10 8 2 0 9
3 11 8 5 6 -9 47 -14 167 -19 17 -1 36 -5 43 -9 6 -5 12 -5 12 0 0 4 46 8 103
9 156 1 252 10 365 33 57 12 107 19 112 16 6 -4 10 -2 10 3 0 4 16 8 35 7 19
-1 35 2 35 7 0 4 12 6 27 4 15 -3 32 -1 38 4 6 5 24 11 40 14 17 3 46 11 65
16 19 6 53 13 74 16 22 3 47 9 55 13 9 5 22 6 29 4 6 -3 12 -1 12 5 0 5 6 9
13 9 22 1 42 8 49 18 16 22 122 20 149 -2 8 -6 19 -12 24 -12 6 -1 28 -7 50
-13 49 -14 63 -17 98 -21 15 -2 30 -6 33 -10 3 -3 12 -3 20 0 8 3 14 1 14 -5
0 -6 8 -9 18 -7 9 1 22 -1 28 -6 6 -5 27 -10 47 -11 20 -2 37 -6 37 -10 0 -4
8 -7 18 -7 9 1 35 -2 57 -5 22 -4 54 -8 70 -10 17 -2 53 -9 80 -16 28 -6 65
-12 83 -13 17 -1 32 -4 32 -7 0 -5 88 -12 160 -13 14 0 28 -5 32 -11 5 -8 8
-8 8 0 0 13 89 12 109 0 6 -4 11 -4 11 1 0 4 30 9 68 9 116 2 193 8 198 15 2
3 15 5 29 4 14 -2 23 0 20 5 -3 4 12 11 33 16 20 4 44 9 52 11 8 3 22 6 30 7
8 2 28 8 43 15 16 6 33 11 38 11 5 0 19 9 31 20 12 10 24 17 29 15 4 -3 15 2
23 11 9 8 16 13 16 9 0 -3 16 9 36 27 20 18 40 32 45 31 5 -2 5 5 2 15 -3 9
-3 14 2 10 8 -8 53 49 83 105 22 41 21 91 -3 142 -20 42 -55 82 -67 78 -5 -2
-8 3 -8 11 0 8 -9 18 -20 21 -11 3 -20 11 -20 16 0 6 -4 7 -10 4 -5 -3 -10 -1
-10 5 0 6 -4 9 -9 5 -5 -3 -16 1 -24 9 -8 8 -28 18 -43 22 -16 4 -33 9 -39 13
-11 6 -25 8 -86 10 -22 0 -38 5 -34 10 3 6 -6 6 -23 1 -16 -4 -34 -5 -40 -1
-14 8 -186 6 -200 -3 -7 -4 -12 -2 -12 4 0 6 -5 8 -12 4 -6 -4 -23 -8 -37 -10
-14 -1 -26 -3 -26 -4 0 -1 -27 -3 -60 -4 -33 -2 -60 -4 -60 -6 0 -1 -13 -3
-30 -6 -45 -6 -59 -9 -72 -17 -7 -5 -13 -4 -13 1 0 5 -19 3 -42 -5 -84 -29
-138 -41 -138 -29 0 6 -5 4 -10 -4 -5 -8 -10 -11 -10 -6 0 5 -7 3 -15 -4 -8
-6 -18 -9 -22 -7 -5 3 -24 -2 -43 -10 -19 -9 -41 -17 -49 -19 -8 -1 -26 -6
-40 -10 -14 -4 -29 -8 -33 -9 -5 -2 -9 -3 -10 -4 -2 -2 -13 -4 -26 -7 -12 -2
-39 -11 -60 -21 -20 -9 -40 -15 -44 -15 -5 1 -8 -2 -8 -8 0 -5 -7 -7 -15 -4
-8 4 -15 2 -15 -3 0 -5 -11 -10 -25 -11 -14 -1 -45 -11 -68 -21 -24 -11 -49
-21 -57 -23 -8 -2 -20 -8 -27 -15 -7 -6 -21 -10 -30 -9 -10 2 -21 -1 -24 -6
-3 -5 -15 -10 -27 -13 -11 -2 -29 -8 -39 -13 -29 -16 -66 -16 -95 -2 -16 7
-28 16 -28 20 0 4 -6 7 -12 7 -26 1 -97 24 -103 33 -4 6 -11 8 -16 5 -5 -4 -9
-1 -9 5 0 6 -4 8 -10 5 -5 -3 -10 -1 -10 4 0 6 -11 11 -23 11 -13 0 -27 3 -31
7 -3 4 -17 8 -29 10 -12 2 -40 12 -63 23 -22 11 -48 20 -57 20 -9 0 -17 4 -17
8 0 4 -8 8 -17 9 -39 3 -77 13 -86 22 -5 5 -15 7 -22 4 -8 -2 -24 3 -37 11
-14 9 -28 13 -31 9 -4 -3 -7 -2 -7 4 0 5 -15 10 -32 11 -18 0 -34 6 -36 12 -3
8 -8 8 -18 -1 -9 -7 -14 -8 -14 -1 0 6 -12 9 -26 7 -14 -1 -31 3 -37 9 -7 6
-19 11 -27 11 -8 -1 -19 2 -25 6 -5 3 -17 7 -25 7 -21 2 -64 9 -70 12 -3 1
-20 2 -37 2 -18 0 -33 3 -33 7 0 3 -30 7 -67 8 -38 2 -70 8 -71 13 -3 7 -9 7
-18 -1 -8 -6 -14 -8 -14 -3 0 8 -247 13 -255 6z m320 -136 c11 -2 22 -5 25 -6
3 -1 22 -2 43 -2 20 1 37 -3 37 -8 0 -4 8 -7 18 -5 9 1 27 -2 40 -6 13 -5 22
-5 22 1 0 6 10 4 23 -5 13 -8 27 -12 30 -8 4 3 15 -1 24 -9 10 -8 25 -16 33
-16 28 -1 74 -13 86 -23 6 -5 13 -6 16 -3 9 8 88 -16 88 -27 0 -6 4 -8 9 -4
10 6 62 -14 72 -28 3 -5 9 -8 13 -7 3 1 25 -2 49 -6 23 -4 45 -7 50 -6 4 1 7
-2 7 -6 0 -13 129 -62 163 -62 9 0 17 -5 17 -11 0 -5 5 -7 10 -4 6 3 10 1 10
-5 0 -6 4 -9 8 -6 10 6 38 -11 30 -19 -3 -3 -18 -8 -34 -11 -16 -3 -31 -9 -32
-15 -2 -5 -7 -7 -11 -5 -4 3 -29 -1 -54 -9 -26 -8 -47 -11 -47 -8 0 3 -7 0
-15 -7 -8 -6 -18 -9 -23 -6 -5 3 -30 -1 -55 -9 -26 -8 -47 -12 -47 -9 0 3 -10
0 -21 -7 -17 -9 -20 -8 -14 2 6 8 4 10 -6 3 -20 -12 -63 -22 -124 -27 -16 -1
-35 -9 -42 -17 -7 -8 -13 -10 -13 -5 0 11 -29 11 -150 0 -127 -12 -305 -2
-390 20 -14 4 -37 9 -52 12 -16 3 -28 9 -28 13 0 7 -56 24 -71 22 -4 -1 -17
10 -29 23 -13 14 -29 25 -35 25 -11 0 -56 40 -80 72 -28 37 -38 108 -15 108 5
0 8 6 5 13 -8 25 65 70 149 93 64 17 102 21 186 18 58 -2 114 -5 125 -8z
m2545 1 c0 -4 4 -6 9 -2 5 3 12 1 16 -4 3 -6 12 -8 20 -5 23 9 88 -17 113 -45
13 -14 27 -26 30 -25 11 1 31 -23 25 -30 -4 -3 -1 -6 5 -6 7 0 12 -16 12 -37
0 -31 -8 -46 -46 -85 -25 -27 -50 -48 -54 -48 -5 0 -20 -11 -33 -24 -14 -14
-28 -22 -31 -19 -3 4 -6 1 -6 -5 0 -7 -3 -11 -7 -10 -13 2 -67 -14 -80 -24 -7
-5 -16 -7 -22 -4 -5 3 -11 1 -13 -5 -2 -6 -16 -11 -31 -11 -15 0 -27 -4 -27
-7 0 -4 -10 -7 -22 -8 -13 -1 -47 -2 -75 -3 -29 -2 -51 -5 -49 -9 2 -3 -38 -6
-90 -6 -52 0 -94 4 -94 8 0 5 -5 5 -11 1 -6 -3 -15 0 -20 7 -5 8 -9 9 -9 3 0
-10 -8 -10 -130 2 -36 4 -77 7 -92 8 -16 0 -28 4 -28 9 0 4 -14 7 -31 7 -21 0
-28 4 -23 13 6 9 5 9 -8 0 -8 -7 -17 -10 -20 -8 -3 3 -16 8 -29 10 -13 3 -37
8 -54 12 -16 3 -43 8 -60 9 -16 1 -31 3 -32 4 -2 1 -6 3 -10 5 -5 1 -15 4 -23
8 -8 3 -28 9 -45 13 -16 4 -33 8 -37 9 -5 2 -17 3 -28 4 -12 1 -20 8 -20 20 0
20 48 45 87 45 13 0 23 4 23 8 0 4 7 8 15 8 18 0 88 32 96 44 4 5 14 6 23 3 8
-3 18 -2 21 4 4 5 10 7 15 4 5 -3 11 -1 14 4 3 5 19 8 35 7 17 -1 28 1 25 5
-4 7 34 22 50 20 5 -1 12 2 15 8 8 13 152 51 165 44 5 -3 14 0 20 8 6 8 16 14
21 15 31 2 95 17 95 23 0 3 15 7 33 8 53 3 107 12 117 18 6 3 10 1 10 -6 0 -7
4 -8 13 -2 6 5 28 10 47 12 19 2 36 4 37 4 6 7 183 1 183 -6z"/>
<path d="M6523 2352 c-25 -4 -74 -73 -56 -79 7 -3 9 -11 6 -19 -3 -8 0 -14 7
-14 6 0 9 -4 6 -9 -3 -5 1 -14 9 -21 8 -7 15 -9 15 -5 0 4 6 3 13 -3 17 -14
58 -5 79 18 19 20 32 90 17 90 -5 0 -9 8 -9 17 0 9 -3 13 -7 10 -3 -4 -11 -3
-17 2 -17 12 -39 17 -63 13z"/>
<path d="M5769 2203 c-7 -7 -8 -13 -5 -13 4 0 2 -9 -4 -20 -6 -11 -7 -20 -3
-20 4 0 8 -156 7 -348 0 -191 2 -351 5 -357 3 -5 6 -12 7 -15 3 -16 20 -47 33
-61 19 -19 63 -44 74 -41 4 1 7 -2 7 -6 0 -9 12 -11 63 -14 15 -1 27 -6 27
-11 0 -4 4 -5 10 -2 11 7 45 15 74 19 10 1 22 10 28 19 5 10 13 15 18 12 5 -3
14 3 19 13 17 31 -29 88 -58 73 -9 -5 -22 -6 -28 -4 -7 3 -13 0 -13 -6 0 -6
-16 -11 -35 -11 -21 0 -35 5 -35 13 0 9 -2 9 -8 -1 -7 -10 -15 -8 -35 9 -15
11 -25 24 -22 29 3 5 1 11 -5 15 -6 4 -8 10 -5 15 3 5 2 11 -3 13 -9 6 -9 428
0 443 4 5 37 9 75 9 37 -1 74 3 81 8 8 6 12 6 12 -1 0 -21 35 -4 40 19 9 36
-4 85 -21 80 -18 -5 -29 -4 -61 2 -16 3 -28 1 -28 -4 0 -6 -8 -6 -20 1 -13 7
-20 7 -20 1 0 -11 -59 6 -61 17 0 4 -2 33 -3 64 -1 32 -4 60 -7 63 -12 12 -90
11 -100 -2z"/>
<path d="M1481 2062 c-1 -7 -5 -10 -11 -7 -5 3 -10 2 -10 -4 0 -6 -6 -8 -13
-5 -7 2 -22 -4 -32 -13 -11 -10 -27 -18 -37 -18 -9 0 -30 -15 -47 -32 -17 -18
-28 -33 -25 -33 4 0 0 -8 -9 -18 -10 -10 -14 -22 -10 -25 3 -4 2 -7 -3 -7 -8
0 -12 -84 -5 -100 2 -3 4 -14 6 -25 2 -11 9 -21 15 -23 5 -2 8 -8 4 -13 -3 -5
2 -9 10 -9 9 0 16 -6 16 -14 0 -11 90 -59 110 -59 3 1 16 -4 30 -9 24 -10 45
-14 83 -17 12 -1 16 -5 11 -13 -6 -10 -5 -10 7 -1 9 8 20 9 29 3 8 -6 27 -10
41 -10 14 0 29 -3 33 -7 7 -8 11 -9 37 -12 5 0 7 -5 4 -11 -3 -5 -2 -10 3 -10
5 0 15 -13 22 -30 10 -25 10 -36 -5 -66 -14 -31 -49 -55 -64 -45 -2 2 -8 -3
-12 -11 -7 -11 -9 -11 -9 1 0 9 -4 10 -12 3 -13 -10 -139 -8 -188 2 -40 9 -80
28 -80 38 0 5 -4 7 -9 3 -5 -3 -12 -1 -16 5 -4 6 -10 8 -15 5 -5 -3 -11 -1
-15 5 -4 6 -13 5 -25 -2 -10 -7 -17 -15 -14 -19 2 -4 0 -10 -6 -14 -20 -12
-10 -53 18 -71 15 -10 29 -19 32 -19 3 -1 25 -7 50 -14 25 -7 53 -15 63 -17
10 -1 31 -10 48 -18 16 -8 29 -10 29 -5 0 6 9 7 23 3 24 -8 26 -8 77 1 63 10
67 11 145 46 39 17 103 84 97 102 -1 5 2 15 7 21 12 14 11 116 -1 116 -4 0 -8
7 -8 15 0 9 -7 18 -15 21 -8 4 -13 10 -10 14 3 5 -16 18 -42 31 -27 12 -51 27
-55 33 -4 6 -8 7 -8 2 0 -5 -6 -3 -13 3 -8 6 -17 8 -20 4 -4 -3 -7 -2 -7 3 0
5 -17 10 -37 11 -116 6 -201 32 -223 67 -15 23 -21 96 -9 96 5 0 9 7 9 15 0
17 52 46 89 49 14 1 31 5 37 9 6 3 14 4 17 1 3 -4 28 -8 56 -9 52 -3 104 -17
149 -41 20 -10 28 -10 33 -2 4 7 6 15 3 19 -2 4 2 9 10 12 16 6 29 47 14 47
-5 0 -6 5 -3 10 5 9 -15 15 -37 11 -5 0 -8 3 -8 8 0 5 -10 11 -22 15 -13 3
-25 6 -28 7 -63 22 -201 32 -227 16 -6 -4 -14 -1 -16 5 -4 10 -6 10 -6 0z"/>
<path d="M2232 2058 l-28 -8 1 -247 c1 -153 5 -256 12 -268 6 -11 8 -26 6 -32
-3 -7 0 -13 7 -13 6 0 8 -4 5 -10 -3 -5 -1 -10 4 -10 6 0 11 -8 11 -17 0 -20
75 -105 84 -96 3 4 6 1 6 -5 0 -7 3 -11 8 -10 4 1 23 -4 42 -11 19 -8 38 -15
43 -16 4 -1 8 -3 10 -5 3 -2 68 -11 82 -11 43 1 107 13 115 22 3 3 27 16 53
28 26 13 46 26 43 29 -8 7 24 42 39 42 10 0 38 -21 98 -72 11 -10 24 -15 29
-12 5 3 16 0 24 -7 18 -15 36 -20 77 -21 15 -1 27 -5 27 -9 0 -5 6 -6 13 -4 6
2 27 6 46 9 19 3 37 8 40 13 3 4 20 8 38 8 17 -1 30 2 27 6 -2 4 12 13 31 19
19 6 35 17 35 24 0 14 36 46 52 46 6 0 9 3 5 6 -3 4 1 21 10 38 9 17 17 49 19
72 1 23 7 57 12 75 5 19 5 46 1 61 -4 16 -3 30 1 33 5 3 5 17 0 31 -6 14 -7
23 -2 21 4 -3 7 8 7 24 0 16 -4 29 -8 29 -5 0 -5 5 -2 10 7 11 9 165 3 190
-13 51 -18 55 -58 55 -31 0 -41 -4 -47 -20 -3 -11 -4 -20 -2 -21 2 0 -2 -8
-10 -17 -7 -10 -9 -17 -4 -17 12 0 11 -49 0 -67 -5 -7 -5 -13 0 -13 4 0 9 -18
9 -40 1 -26 -3 -37 -10 -33 -6 4 -6 0 1 -8 10 -12 10 -18 1 -27 -7 -7 -8 -12
-2 -12 5 0 9 -22 9 -50 0 -27 -3 -50 -7 -50 -4 0 -3 -11 2 -25 6 -16 6 -26 -1
-31 -7 -4 -6 -10 1 -19 6 -8 7 -16 2 -19 -5 -3 -8 -17 -7 -31 2 -14 -1 -25 -6
-25 -5 0 -8 -3 -7 -7 3 -16 -21 -61 -37 -67 -9 -3 -13 -10 -10 -16 3 -5 1 -11
-4 -11 -14 -2 -30 -6 -33 -9 -14 -10 -116 -15 -162 -7 -17 2 -37 14 -47 25 -9
12 -19 19 -22 16 -9 -9 -39 44 -32 56 3 5 1 10 -5 10 -6 0 -9 4 -5 9 3 5 1 12
-4 16 -5 3 -10 13 -10 23 1 308 -5 472 -17 472 -8 0 -14 3 -14 8 0 9 -52 8
-68 -2 -7 -4 -12 -4 -13 1 0 4 -4 -2 -9 -14 -5 -12 -7 -31 -5 -43 2 -11 -1
-20 -6 -20 -6 0 -7 -5 -3 -11 12 -20 12 -69 0 -69 -7 0 -8 -3 -1 -8 6 -4 11
-25 11 -47 0 -22 -5 -43 -11 -47 -7 -5 -6 -8 1 -8 12 0 13 -44 1 -56 -3 -4 -2
-14 2 -23 11 -20 12 -33 1 -46 -5 -6 -5 -17 -1 -24 5 -8 6 -25 2 -40 -4 -14
-6 -36 -5 -48 1 -13 -3 -23 -7 -23 -5 0 -8 -3 -7 -7 9 -27 -89 -112 -112 -98
-6 3 -10 3 -10 -2 0 -4 -20 -9 -45 -9 -24 -1 -42 2 -39 7 3 5 -2 6 -11 3 -26
-10 -63 5 -98 39 -56 54 -58 68 -60 370 -1 114 -5 207 -9 207 -4 0 -8 6 -8 13
0 13 -35 16 -78 5z"/>
<path d="M3978 2046 c-31 -12 -60 -24 -64 -28 -4 -5 -13 -8 -21 -8 -19 0 -115
-99 -108 -110 4 -6 2 -10 -3 -10 -10 0 -51 -71 -58 -102 -8 -36 -10 -178 -3
-178 4 0 6 -15 5 -34 -1 -19 2 -32 6 -30 7 5 9 0 8 -21 0 -3 11 -18 25 -33 14
-15 25 -31 25 -36 0 -12 84 -90 102 -94 7 -2 16 -9 20 -15 4 -7 8 -8 8 -3 0 5
6 4 13 -2 7 -6 26 -13 42 -16 15 -3 31 -9 34 -14 3 -5 16 -8 29 -7 12 1 22 -2
22 -6 0 -4 13 -4 29 1 16 4 32 6 34 3 3 -2 13 0 24 5 10 5 29 14 43 20 64 25
119 56 114 63 -3 5 -2 9 3 10 4 0 15 2 24 4 12 2 16 -6 17 -33 3 -71 89 -93
109 -29 12 40 11 607 -1 626 -5 8 -4 16 4 21 8 5 9 13 4 21 -5 8 -9 20 -10 27
-4 22 -11 25 -49 24 -34 -1 -74 -29 -68 -48 1 -5 -1 -15 -5 -21 -6 -10 -19 -7
-52 9 -25 12 -47 26 -48 30 -2 5 -8 6 -13 2 -5 -3 -9 -1 -9 3 0 5 -12 10 -27
11 -15 1 -29 5 -32 10 -12 15 -117 8 -173 -12z m190 -107 c2 -5 12 -9 23 -9
24 0 96 -69 121 -117 11 -19 15 -32 9 -29 -5 3 -7 -3 -4 -14 3 -11 9 -20 13
-20 10 0 8 -126 -2 -136 -5 -4 -8 -18 -8 -31 0 -12 -5 -23 -12 -23 -6 0 -8 -3
-5 -6 11 -11 -24 -60 -54 -78 -16 -10 -29 -21 -29 -27 0 -5 -9 -9 -20 -9 -11
0 -20 -4 -20 -8 0 -5 -22 -8 -49 -8 -27 1 -47 -3 -44 -8 3 -4 -5 -5 -17 -1
-12 4 -32 8 -44 9 -28 3 -66 24 -66 36 0 6 -4 9 -9 8 -15 -5 -81 75 -81 99 0
13 -4 23 -8 23 -5 0 -9 21 -11 48 -1 26 -2 52 -3 57 -2 21 13 90 22 99 4 4 6
14 4 20 -4 11 82 110 98 112 4 1 10 3 13 4 3 1 8 3 13 5 4 1 14 4 22 8 31 12
45 13 94 9 28 -2 53 -8 54 -13z"/>
<path d="M5015 2052 c-27 -8 -53 -19 -56 -24 -3 -5 -9 -9 -13 -9 -19 3 -28 -2
-55 -28 -48 -47 -59 -78 -56 -160 l2 -74 48 -43 c26 -24 56 -44 67 -44 10 0
18 -3 18 -7 0 -7 18 -11 73 -16 9 -1 17 -4 17 -7 0 -3 8 -6 18 -7 18 -1 57
-10 57 -13 0 -1 9 -3 20 -5 11 -2 31 -6 45 -10 14 -3 31 -7 39 -9 8 -1 19 -10
26 -19 7 -9 17 -17 22 -17 5 0 9 -19 9 -41 -1 -34 -8 -47 -34 -69 -18 -15 -38
-27 -45 -28 -80 -9 -134 -8 -146 1 -12 10 -13 9 -6 -2 6 -11 4 -13 -8 -8 -8 3
-33 9 -54 12 -46 8 -93 27 -93 37 0 5 -9 8 -20 8 -11 0 -20 4 -20 10 0 20 -31
-4 -46 -36 -12 -25 -13 -38 -5 -47 6 -8 8 -17 4 -20 -3 -4 1 -7 10 -7 9 0 17
-5 17 -11 0 -5 4 -8 9 -5 5 3 25 -1 45 -9 20 -8 36 -13 36 -10 0 3 10 0 23 -7
12 -7 28 -11 35 -10 6 2 12 -2 12 -7 0 -6 7 -8 16 -4 9 3 20 0 25 -8 7 -12 9
-12 9 0 0 10 3 11 13 2 8 -6 17 -8 20 -4 4 3 31 7 61 8 30 1 60 6 68 12 7 6
21 9 31 7 11 -1 16 0 13 4 -4 3 13 12 36 20 38 13 77 45 78 65 0 4 9 17 19 28
11 12 18 30 16 40 -2 10 0 19 4 19 4 0 7 10 5 23 -1 12 -3 22 -4 22 -1 0 -4
13 -6 30 -3 16 -12 34 -20 38 -8 4 -14 13 -14 18 0 6 -6 16 -12 23 -17 15
-112 56 -132 56 -9 0 -16 4 -16 8 0 4 -8 8 -17 8 -10 0 -43 4 -73 8 -30 5 -62
9 -70 10 -8 1 -25 8 -37 14 -13 7 -23 10 -23 7 0 -3 -12 7 -27 22 -22 22 -27
35 -24 63 4 35 38 96 49 86 3 -3 11 -1 17 4 7 6 30 12 51 14 22 3 39 5 39 6 0
1 10 3 23 4 12 2 22 0 22 -4 0 -4 11 -6 25 -5 14 2 25 0 25 -3 0 -4 10 -8 23
-8 37 -2 69 -13 86 -28 24 -22 32 -20 52 11 20 30 22 83 3 83 -6 0 -26 8 -45
17 -19 10 -45 18 -59 18 -14 1 -32 5 -40 10 -23 14 -151 12 -205 -3z"/>
<path d="M6520 2059 c0 -5 -7 -6 -15 -3 -19 8 -17 37 -19 -376 -2 -361 0 -371
41 -372 23 0 64 10 72 18 10 10 8 708 -2 722 -6 7 -18 10 -28 7 -11 -4 -19 -2
-19 3 0 5 -7 9 -15 9 -8 0 -15 -4 -15 -8z"/>
<path d="M1150 983 c-36 -43 13 -99 53 -61 14 12 11 68 -3 68 -5 0 -14 2 -22
5 -7 3 -20 -3 -28 -12z"/>
<path d="M4480 990 c0 -5 -6 -9 -12 -7 -7 1 -14 -8 -16 -20 -4 -26 32 -71 43
-54 3 6 11 8 17 5 6 -4 8 -2 4 4 -3 6 -2 13 3 17 13 7 10 39 -4 51 -16 13 -35
16 -35 4z"/>
<path d="M5600 989 c0 -6 -4 -8 -9 -5 -5 4 -8 -5 -7 -19 2 -13 0 -22 -4 -20
-4 2 -6 -21 -4 -51 3 -58 -12 -78 -40 -55 -29 24 -98 22 -154 -5 -30 -15 -56
-34 -60 -43 -3 -9 -10 -19 -15 -22 -5 -4 -10 -23 -11 -43 0 -20 -4 -36 -7 -36
-4 0 -3 -17 1 -37 5 -20 7 -40 4 -44 -2 -4 0 -10 6 -14 6 -4 8 -10 6 -14 -3
-4 7 -16 21 -27 15 -10 31 -24 37 -30 35 -33 125 -40 178 -13 37 19 37 19 48
-1 11 -21 27 -22 48 -3 10 10 13 61 12 230 -1 120 -1 226 -1 236 0 9 -3 17 -7
18 -4 0 -15 2 -24 4 -10 2 -18 -1 -18 -6z m-63 -223 c35 -28 35 -29 31 -96 -3
-59 -7 -70 -32 -92 -22 -19 -38 -24 -65 -21 -66 6 -97 25 -92 56 0 4 -3 7 -7
7 -8 0 -8 76 0 112 5 22 37 47 61 48 9 0 17 4 17 8 0 19 53 5 87 -22z"/>
<path d="M2960 973 c0 -4 -10 -9 -23 -9 -39 -3 -52 -8 -67 -29 -8 -11 -15 -22
-15 -25 0 -3 -4 -11 -8 -17 -5 -7 -5 -17 -2 -23 3 -5 2 -10 -4 -10 -7 0 -7 -8
1 -25 6 -14 14 -25 18 -25 4 0 10 -13 12 -30 3 -16 1 -30 -2 -30 -4 0 -19 -12
-34 -26 -14 -15 -26 -23 -26 -18 -1 16 -21 -26 -26 -54 -7 -35 5 -114 16 -107
4 3 11 -2 14 -11 3 -8 10 -12 16 -9 5 3 10 2 10 -4 0 -23 131 -44 161 -25 8 4
22 10 32 11 10 2 25 10 33 18 22 21 39 19 57 -8 13 -20 55 -32 58 -17 8 33 3
50 -17 61 -13 6 -21 16 -18 21 3 4 0 8 -7 8 -8 0 -9 3 0 13 6 8 8 17 4 20 -3
4 -1 7 4 7 6 0 10 11 9 25 -2 13 1 22 5 19 13 -8 11 20 -2 33 -16 16 -49 4
-49 -19 0 -10 -4 -16 -10 -13 -5 3 -10 1 -10 -4 0 -6 -7 -11 -15 -11 -8 0 -15
6 -15 13 0 8 -11 19 -25 25 -14 6 -26 15 -26 19 -7 41 -4 53 13 58 10 4 16 11
13 16 -4 5 -2 9 4 9 20 0 42 57 32 83 -6 14 -7 27 -4 30 11 11 -42 49 -72 52
-5 0 -16 4 -22 8 -7 5 -13 5 -13 0z m35 -93 c7 -22 -2 -47 -20 -54 -18 -7 -56
4 -49 15 3 5 1 9 -4 9 -18 0 1 42 22 50 27 9 44 3 51 -20z m-43 -167 c10 -10
26 -27 36 -37 9 -11 27 -30 39 -42 36 -39 38 -60 6 -76 -46 -23 -136 -21 -167
3 -14 11 -24 24 -21 29 3 5 1 11 -5 15 -6 4 -7 13 -1 23 5 9 9 20 10 25 1 14
16 33 45 55 35 26 35 26 58 5z"/>
<path d="M758 865 c-3 -3 -18 -8 -34 -11 -16 -3 -31 -9 -34 -13 -13 -19 -40
-19 -50 -1 -5 10 -17 17 -26 16 -18 -3 -35 -26 -28 -38 3 -4 1 -8 -3 -8 -5 0
-9 -13 -8 -30 0 -16 4 -30 9 -30 5 0 3 -7 -4 -15 -9 -11 -9 -15 -1 -15 8 0 9
-5 2 -18 -7 -13 -6 -23 1 -30 8 -8 8 -12 1 -12 -10 0 -10 -47 1 -57 3 -4 1
-12 -5 -19 -7 -8 -7 -14 1 -19 7 -4 7 -12 0 -26 -8 -13 -7 -19 0 -19 8 0 8 -6
0 -20 -8 -14 -8 -20 0 -20 8 0 8 -6 0 -20 -8 -15 -8 -20 2 -20 9 0 9 -3 1 -11
-16 -16 5 -59 27 -59 27 0 38 21 37 71 0 26 3 51 7 58 8 13 42 15 50 2 10 -15
127 -11 133 5 3 8 9 11 14 8 5 -3 9 0 9 7 0 7 3 10 6 6 10 -10 74 64 72 82 -2
9 2 15 7 14 15 -2 8 93 -10 126 -8 16 -12 31 -10 35 3 3 2 4 -1 2 -3 -2 -19 9
-36 25 -17 15 -34 27 -37 26 -3 -1 -15 3 -26 9 -11 6 -27 10 -35 9 -8 0 -18 3
-21 7 -3 5 -8 6 -11 3z m69 -90 c7 -11 13 -15 13 -9 1 5 7 -2 14 -16 8 -14 12
-28 10 -32 -3 -5 -1 -8 5 -8 5 0 8 -11 5 -25 -2 -14 -6 -37 -9 -51 -2 -15 -14
-37 -25 -49 -23 -25 -70 -39 -70 -22 0 8 -4 7 -11 0 -18 -18 -66 5 -81 38 -7
16 -15 29 -18 29 -3 0 -6 21 -6 47 -1 40 4 51 36 83 32 32 42 37 80 35 29 -1
48 -8 57 -20z"/>
<path d="M3701 863 c0 -7 -4 -12 -8 -12 -23 4 -29 -5 -32 -43 -1 -23 -4 -45
-7 -49 -2 -4 0 -11 6 -14 8 -5 8 -11 0 -20 -8 -10 -8 -15 0 -20 8 -5 8 -10 0
-20 -8 -9 -8 -15 0 -20 7 -4 7 -12 0 -26 -8 -13 -7 -19 0 -19 6 0 9 -4 6 -8
-3 -5 -7 -30 -10 -55 -4 -46 2 -54 42 -63 22 -4 30 29 29 131 0 106 9 139 43
150 11 3 20 10 20 15 0 4 20 7 45 5 56 -3 89 -35 82 -78 -2 -15 -1 -30 2 -31
8 -5 6 -140 -2 -153 -8 -13 13 -32 42 -38 24 -4 23 -5 26 51 1 22 5 46 9 52 4
7 3 12 -2 12 -8 0 -6 63 3 115 2 11 4 23 4 26 1 3 9 15 19 26 32 36 129 15
139 -31 1 -6 4 -21 7 -33 3 -13 0 -23 -5 -23 -6 0 -7 -6 -2 -12 11 -18 12 -58
1 -58 -5 0 -5 -8 0 -17 4 -10 8 -31 7 -48 -1 -16 2 -38 7 -47 9 -19 45 -20 52
-1 8 19 9 200 2 211 -3 6 0 13 6 15 10 4 10 6 1 6 -7 1 -10 8 -7 16 4 8 1 15
-5 15 -6 0 -11 8 -11 18 0 30 -78 70 -133 68 -26 -1 -51 -6 -55 -12 -7 -10
-38 -26 -57 -29 -5 0 -26 9 -46 21 -21 13 -49 21 -67 20 -18 -1 -32 3 -32 8 0
7 -3 7 -8 0 -24 -37 -96 -41 -105 -6 -3 9 -5 11 -6 5z"/>
<path d="M4920 861 c0 -8 -3 -12 -6 -8 -4 3 -22 0 -41 -8 -40 -17 -67 -19 -59
-6 3 5 -3 11 -14 14 -28 7 -53 -31 -40 -63 6 -16 6 -50 -1 -50 -4 0 -4 -13 1
-30 6 -21 5 -30 -3 -30 -8 0 -8 -3 0 -11 8 -8 8 -20 3 -35 -5 -13 -6 -24 -2
-24 11 0 9 -71 -2 -89 -6 -10 -5 -12 2 -7 7 4 12 1 12 -8 0 -8 7 -13 18 -11 9
2 21 4 25 4 5 1 8 11 7 24 -1 12 -2 24 -1 27 1 3 3 43 5 90 1 47 8 95 14 107
13 23 85 67 95 57 5 -5 28 -11 50 -13 4 -1 7 -8 7 -17 0 -8 4 -13 9 -10 17 11
24 -29 26 -142 1 -61 5 -115 9 -119 11 -11 45 -10 49 1 3 7 5 66 6 133 2 85
-2 128 -11 144 -19 31 -56 68 -62 61 -3 -3 -6 -1 -6 4 0 6 -17 9 -37 9 -21 0
-41 4 -45 10 -5 6 -8 5 -8 -4z"/>
<path d="M6320 863 c0 -6 -8 -10 -17 -9 -20 3 -113 -43 -113 -57 0 -4 -4 -5
-10 -2 -5 3 -10 0 -10 -9 0 -8 -5 -16 -11 -18 -7 -2 -11 -33 -12 -78 0 -83 2
-98 21 -118 7 -8 10 -17 8 -21 -3 -4 0 -8 7 -8 7 0 30 -11 52 -25 32 -20 51
-25 100 -24 55 2 64 6 98 37 l38 36 -25 11 c-20 9 -29 8 -48 -7 -14 -11 -41
-18 -70 -18 -39 -1 -53 5 -78 28 -16 16 -31 37 -31 47 -5 57 -4 88 4 100 5 6
6 12 1 12 -10 0 55 55 67 56 5 1 10 2 12 4 11 9 47 4 47 -8 0 -7 6 -12 13 -9
6 2 26 -4 44 -14 24 -14 34 -15 40 -6 11 17 11 30 0 44 -14 19 -81 50 -96 45
-7 -2 -17 2 -22 9 -5 9 -9 10 -9 2z"/>
<path d="M6780 861 c0 -8 -3 -11 -7 -8 -3 4 -17 0 -31 -9 -13 -8 -26 -13 -28
-11 -7 6 -54 -41 -54 -53 0 -6 -4 -10 -10 -10 -5 0 -10 -7 -10 -16 0 -9 -5
-12 -12 -8 -8 5 -9 2 -5 -10 4 -10 2 -26 -3 -36 -7 -13 -7 -21 1 -25 6 -4 8
-14 5 -22 -6 -15 29 -103 42 -103 4 0 20 -11 36 -25 16 -13 33 -22 37 -19 5 3
9 1 9 -5 0 -6 23 -8 58 -6 78 6 82 7 76 17 -3 4 -2 8 3 9 4 0 16 2 25 4 10 2
20 -5 24 -17 3 -12 11 -17 21 -14 8 3 18 6 22 6 4 0 7 19 6 43 0 23 4 47 8 54
4 6 3 14 -3 18 -8 5 -8 11 1 21 6 8 8 14 3 14 -5 0 -9 18 -9 40 0 22 2 40 5
40 6 0 3 58 -5 96 -8 35 -58 35 -62 1 -2 -14 -13 -21 -13 -9 0 7 -7 12 -15 12
-8 0 -15 5 -15 11 0 5 -4 8 -9 4 -5 -3 -12 -1 -15 4 -4 5 -18 8 -34 6 -15 -1
-30 2 -34 9 -5 7 -8 7 -8 -3z m68 -70 c19 -2 62 -51 62 -72 0 -11 5 -19 11
-19 32 0 -34 -134 -67 -138 -11 -1 -28 -3 -39 -5 -23 -5 -75 11 -91 28 -17 16
-35 104 -24 118 1 1 3 11 5 21 6 33 65 76 100 72 16 -2 36 -4 43 -5z"/>
<path d="M7726 863 c-4 -5 -11 -8 -14 -8 -4 -1 -17 -6 -30 -13 -12 -7 -26 -11
-30 -8 -8 5 -47 -33 -47 -46 0 -4 -8 -13 -18 -21 -11 -8 -20 -28 -21 -50 -2
-20 -6 -40 -9 -44 -4 -3 -2 -12 4 -19 6 -8 9 -20 6 -28 -3 -8 -2 -16 3 -18 5
-2 10 -9 12 -17 4 -17 46 -61 58 -61 6 0 10 -4 10 -10 0 -5 9 -10 20 -10 11 0
20 -4 20 -8 0 -5 29 -8 65 -8 36 0 65 2 65 6 0 3 15 14 34 24 21 11 33 24 31
35 -1 9 -8 15 -14 14 -6 -2 -11 2 -11 8 0 6 -14 1 -31 -11 -16 -12 -33 -20
-36 -17 -3 3 -16 2 -29 -3 -14 -6 -24 -6 -24 -1 0 5 -9 7 -20 4 -11 -3 -20 0
-20 6 0 6 -3 10 -7 9 -22 -4 -40 15 -35 37 2 14 8 22 13 19 5 -3 15 -2 22 3
12 8 32 13 55 15 6 1 12 5 12 9 0 4 11 6 25 4 14 -1 27 1 30 4 2 4 16 7 32 6
15 0 35 6 43 14 15 15 24 75 9 65 -5 -3 -9 4 -9 15 0 24 -29 61 -47 61 -7 0
-13 5 -13 11 0 5 -4 8 -9 5 -5 -4 -11 -1 -13 5 -2 6 -20 11 -40 12 -20 0 -35
5 -32 9 6 10 0 10 -10 1z m54 -74 c22 -6 41 -26 45 -49 5 -26 -4 -30 -68 -35
-61 -5 -78 -8 -93 -18 -12 -7 -24 13 -24 40 0 8 15 28 32 44 31 27 58 31 108
18z"/>
<path d="M184 850 c-11 -5 -36 -23 -55 -40 -19 -18 -28 -29 -20 -25 11 7 13 4
6 -11 -11 -28 -8 -52 9 -70 9 -8 16 -19 16 -24 0 -4 10 -11 23 -15 12 -4 25
-8 30 -10 4 -1 16 -3 28 -4 11 0 18 -4 16 -8 -3 -5 6 -9 19 -9 13 -1 30 -9 39
-17 15 -16 21 -56 8 -58 -32 -6 -133 -3 -133 4 0 4 -4 5 -10 2 -5 -3 -10 -2
-10 4 0 6 -11 6 -32 -1 -18 -6 -27 -13 -20 -16 6 -2 12 -9 12 -15 0 -22 64
-42 138 -43 39 0 72 3 72 8 0 4 5 8 10 8 14 0 45 30 57 55 28 55 -30 136 -89
126 -5 0 -8 3 -8 7 0 4 -10 8 -22 9 -53 1 -64 5 -81 28 -17 24 -17 26 2 46 11
12 24 18 30 14 6 -3 11 -2 11 3 0 10 36 9 46 0 3 -4 12 -4 20 -1 8 3 14 1 14
-4 0 -6 12 -10 28 -9 16 1 26 6 24 14 -1 6 2 12 8 12 6 0 10 5 10 10 0 6 -8
10 -18 10 -10 0 -23 5 -30 12 -14 14 -118 19 -148 8z"/>
<path d="M1154 852 c-6 -4 -10 -32 -9 -64 0 -32 -3 -58 -8 -58 -4 0 -5 -5 -1
-11 10 -16 12 -106 3 -121 -4 -7 -3 -18 3 -26 9 -10 8 -16 -1 -22 -9 -5 -10
-10 -2 -14 6 -4 11 -15 11 -25 0 -13 7 -18 25 -17 14 1 25 4 26 6 0 3 4 22 8
43 5 20 6 37 2 37 -3 0 -5 57 -3 127 3 112 1 129 -14 140 -20 15 -25 15 -40 5z"/>
<path d="M1468 852 c-18 -3 -19 -8 -21 -54 -1 -13 -6 -26 -11 -30 -8 -5 -7 -8
1 -8 11 0 10 -30 -2 -49 -3 -5 -1 -12 4 -15 9 -6 10 -23 0 -41 -5 -9 -5 -31 1
-37 1 -2 3 -18 5 -36 2 -20 0 -30 -7 -26 -6 4 -5 -2 1 -15 7 -12 9 -26 6 -31
-4 -6 7 -10 24 -10 31 0 50 28 35 51 -3 6 0 16 7 21 8 6 10 11 4 14 -14 6 -10
131 5 149 7 8 10 15 6 15 -3 0 4 10 16 22 16 16 35 23 68 24 55 1 93 -30 96
-79 1 -18 6 -43 12 -57 5 -14 6 -27 3 -30 -12 -8 -7 -114 6 -127 6 -7 19 -10
27 -7 17 6 33 50 23 61 -4 3 -2 14 4 24 7 13 6 19 -1 19 -6 0 -8 5 -4 12 11
17 11 58 1 58 -4 0 -3 9 3 20 6 11 7 20 3 20 -4 0 -9 11 -9 24 -1 14 -12 39
-24 55 -12 17 -18 31 -13 31 4 0 -5 8 -22 17 -41 22 -155 26 -155 5 0 -9 -3
-12 -6 -9 -4 3 -15 2 -25 -4 -15 -8 -19 -6 -19 8 0 14 -2 15 -9 4 -8 -12 -9
-12 -12 0 -2 8 -12 13 -21 11z"/>
<path d="M2090 849 c0 -3 -17 -13 -37 -22 -28 -12 -43 -28 -58 -59 -18 -41
-29 -147 -15 -158 4 -3 13 -18 21 -35 8 -16 27 -36 42 -43 15 -7 27 -17 27
-21 0 -10 21 -13 102 -14 57 -1 69 2 86 21 11 12 24 22 30 22 5 0 8 9 5 20 -3
11 -9 17 -14 14 -5 -3 -9 0 -9 7 0 7 -8 6 -25 -5 -14 -9 -25 -14 -25 -10 0 4
-6 2 -12 -4 -7 -5 -34 -9 -60 -8 -36 1 -52 7 -68 26 -20 23 -20 25 -3 37 9 8
23 11 30 9 7 -3 13 -1 13 5 0 6 5 7 11 3 6 -3 14 -1 18 5 4 6 23 14 42 16 64
8 104 17 115 26 16 13 12 78 -6 89 -8 5 -11 10 -5 10 5 0 -2 11 -17 25 -15 14
-34 25 -43 25 -8 0 -15 5 -15 11 0 5 -4 8 -9 4 -5 -3 -12 -1 -16 4 -6 11 -105
10 -105 0z m124 -54 c13 -9 32 -28 41 -41 20 -32 5 -56 -34 -53 -25 2 -38 -1
-88 -22 -16 -6 -23 -5 -23 3 0 9 -3 9 -12 0 -15 -15 -67 -16 -69 -2 -5 40 10
77 43 105 42 36 96 40 142 10z"/>
<path d="M4462 844 c-8 -9 -8 -15 -1 -19 7 -5 7 -11 -1 -20 -8 -9 -8 -15 0
-20 6 -3 7 -11 4 -17 -10 -15 -10 -238 -1 -238 5 0 6 -4 2 -9 -6 -10 33 -36
41 -28 12 11 26 119 15 112 -5 -2 -5 10 -1 29 4 19 4 40 -1 47 -4 7 -4 20 0
28 9 19 8 32 -2 49 -5 6 -4 12 0 12 10 0 9 35 -1 67 -8 24 -35 27 -54 7z"/>
<path d="M7234 843 c-4 -10 -8 -87 -9 -171 -1 -166 5 -193 42 -174 18 10 20
21 20 116 1 105 16 164 41 159 7 -2 12 1 12 7 0 6 6 10 14 10 27 0 61 25 58
42 -4 21 -29 30 -51 18 -10 -5 -21 -6 -25 -3 -3 3 -6 2 -6 -4 0 -14 -32 -12
-55 3 -25 18 -31 18 -41 -3z"/>
</g>
</svg>
